<svg xmlns="http://www.w3.org/2000/svg" viewBox="0 0 896.91 343.19"><defs><style>.cls-1{isolation:isolate;}.cls-2{fill:none;}.cls-17,.cls-3{fill:#fff;}.cls-4{fill:#c6eafa;}.cls-13,.cls-19,.cls-4{opacity:0.42;}.cls-10,.cls-12,.cls-13,.cls-19,.cls-20,.cls-26,.cls-30,.cls-4,.cls-7{mix-blend-mode:multiply;}.cls-5,.cls-7{fill:#aca5af;}.cls-6{fill:#ded4e2;opacity:0.8;}.cls-16,.cls-21,.cls-27,.cls-6{mix-blend-mode:overlay;}.cls-8{fill:#f3fafd;}.cls-9{fill:#e1f2f2;}.cls-10,.cls-15{fill:#75cdd5;}.cls-11{fill:#3c59a0;}.cls-12{fill:#7e92ca;}.cls-13{fill:#8a7868;}.cls-14{fill:#b1bee1;}.cls-16{fill:#95d6dc;}.cls-17{opacity:0.14;}.cls-18{fill:#c0e8fb;}.cls-20{fill:#2eb991;}.cls-21{fill:#ffd68b;opacity:0.54;}.cls-22{fill:#445ba9;}.cls-23{fill:#5dc7d1;}.cls-24{fill:#4a66b0;}.cls-25{opacity:0.41;}.cls-25,.cls-28{mix-blend-mode:screen;}.cls-26,.cls-29,.cls-30{fill:#c5c1c9;}.cls-26{opacity:0.51;}.cls-27{fill:#aedfe4;}.cls-28{fill:#67c9d3;opacity:0.39;}.cls-31{fill:#858288;}</style></defs><title>Asset 2</title><g class="cls-1"><g id="Layer_2" data-name="Layer 2"><g id="Layer_1-2" data-name="Layer 1"><rect class="cls-2" width="896.91" height="342.56"/><path class="cls-3" d="M106.27,222.69v104.6a15.86,15.86,0,0,0,15.86,15.86h60.44a15.86,15.86,0,0,0,15.86-15.86V222.69Z"/><path class="cls-4" d="M182.57,311.35H122.13a15.86,15.86,0,0,1-15.86-15.86v31.8a15.86,15.86,0,0,0,15.86,15.86h60.44a15.86,15.86,0,0,0,15.86-15.86v-31.8A15.86,15.86,0,0,1,182.57,311.35Z"/><path class="cls-3" d="M181,182.46H123.74a46,46,0,0,0-17.47,36.11v4.12h92.16v-4.12A46,46,0,0,0,181,182.46Z"/><rect class="cls-5" x="122.97" y="140.99" width="58.2" height="41.47"/><rect class="cls-6" x="122.97" y="140.99" width="37.11" height="41.47"/><rect class="cls-6" x="131.67" y="140.99" width="19.7" height="41.47"/><rect class="cls-5" x="127.3" y="133.05" width="49.54" height="7.94"/><rect class="cls-7" x="127.3" y="138.24" width="49.54" height="2.76"/><rect class="cls-6" x="127.3" y="133.05" width="49.54" height="2.42"/><rect class="cls-8" x="138.19" y="97.27" width="29.99" height="35.78"/><rect class="cls-9" x="153.19" y="97.27" width="15" height="35.78"/><rect class="cls-8" x="27" y="105.03" width="111.18" height="10.13"/><rect class="cls-9" x="134.51" y="105.03" width="3.68" height="10.13"/><polygon class="cls-8" points="44.98 115.16 25.45 118.6 25.45 101.15 44.98 105.03 44.98 115.16"/><rect class="cls-10" x="17.83" y="99.99" width="7.63" height="19.52"/><rect class="cls-11" x="106.27" y="240.86" width="92.17" height="75.16"/><rect class="cls-12" x="106.27" y="240.86" width="92.17" height="10.26"/><rect class="cls-12" x="106.27" y="305.76" width="92.17" height="10.26"/><path class="cls-3" d="M180.59,269.73H122.16a4.66,4.66,0,0,1-4.66-4.65h0a4.66,4.66,0,0,1,4.66-4.65h58.43a4.66,4.66,0,0,1,4.66,4.65h0A4.66,4.66,0,0,1,180.59,269.73Z"/><path class="cls-3" d="M163.53,283.09H140.61a4.66,4.66,0,0,1-4.66-4.65h0a4.66,4.66,0,0,1,4.66-4.65h22.92a4.65,4.65,0,0,1,4.65,4.65h0A4.65,4.65,0,0,1,163.53,283.09Z"/><path class="cls-3" d="M191,213.27c0,10.48-16.92,19-37.8,19s-37.81-8.49-37.81-19,16.93-19,37.81-19S191,202.8,191,213.27Z"/><path class="cls-3" d="M655.68,281.23v53.64c0,.27,0,.52,0,.78H572.21c0-.26,0-.51,0-.78V281.71c0-11.51,4.93-22.12,12.92-27.76a28.17,28.17,0,0,0,6.4-6.35h44.78a28.47,28.47,0,0,0,6.2,5.66C650.69,258.72,655.68,269.58,655.68,281.23Z"/><path class="cls-13" d="M637.09,248.55H590.78c.25-.31.49-.62.72-1h44.78C636.55,247.93,636.82,248.25,637.09,248.55Z"/><path class="cls-3" d="M572.21,335.65a8.27,8.27,0,0,0,8.24,7.5h67a8.27,8.27,0,0,0,8.24-7.5Z"/><rect class="cls-3" x="592.02" y="204.43" width="43.49" height="38.94"/><path class="cls-14" d="M632,239.4s0-.08,0-.12v-29a2.66,2.66,0,1,0-5.3,0v29a.5.5,0,0,0,0,.12h-3.57s0-.08,0-.12v-29a2.65,2.65,0,1,0-5.29,0v29s0,.08,0,.12h-5.37a.49.49,0,0,0,0-.12v-29a2.65,2.65,0,1,0-5.29,0v29s0,.08,0,.12h-5.73s0-.08,0-.12v-29a2.65,2.65,0,1,0-5.29,0v29a.49.49,0,0,0,0,.12H592v4h43.5v-4Z"/><path class="cls-10" d="M626.05,198.39H602.24a.68.68,0,0,1-.69-.68v-51a12.59,12.59,0,0,1,12.59-12.59h0a12.59,12.59,0,0,1,12.59,12.59v51A.67.67,0,0,1,626.05,198.39Z"/><path class="cls-10" d="M614.14,134.16a12.52,12.52,0,0,0-4.42.81,12.58,12.58,0,0,1,8.18,11.78v51a.68.68,0,0,1-.69.68h8.84a.67.67,0,0,0,.68-.68v-51A12.59,12.59,0,0,0,614.14,134.16Z"/><path class="cls-3" d="M635.52,204.27a6.41,6.41,0,0,0-6.4-6.41H598.43a6.41,6.41,0,0,0-6.41,6.41v.16h43.5Z"/><path class="cls-4" d="M629.12,197.86H618.23a6.41,6.41,0,0,1,6.4,6.41v39.1h10.89v-39.1A6.41,6.41,0,0,0,629.12,197.86Z"/><path class="cls-15" d="M614.14,166.7c0,11.87-1.95,21.5-4.35,21.5s-4.35-9.63-4.35-21.5,1.95-21.5,4.35-21.5S614.14,154.83,614.14,166.7Z"/><path class="cls-3" d="M587.9,243.37v.13h0c0,2.27,1.34,4.1,3.6,4.1h44.78c2.27,0,3.68-1.83,3.68-4.1h0v-.13Z"/><rect class="cls-11" x="572.18" y="283.79" width="83.5" height="51.86"/><rect class="cls-12" x="572.18" y="283.79" width="83.51" height="5.91"/><rect class="cls-12" x="572.18" y="329.75" width="83.47" height="5.91"/><rect class="cls-16" x="613.77" y="295.74" width="36.15" height="2.27"/><rect class="cls-16" x="613.77" y="300.81" width="36.15" height="2.27"/><rect class="cls-16" x="613.77" y="306.44" width="36.15" height="2.27"/><rect class="cls-16" x="613.77" y="312.53" width="36.15" height="2.27"/><path class="cls-4" d="M642.49,253.25a27.75,27.75,0,0,1-6.21-5.65h0c2.27,0,3.68-1.83,3.68-4.1h0v-.13h-15s0,.09,0,.13h0c0,2.27-1.42,4.1-3.69,4.1h0a27.75,27.75,0,0,0,6.21,5.65c8.2,5.47,13.2,16.33,13.2,28v53.64a6.79,6.79,0,0,1,0,.78,8.27,8.27,0,0,1-8.24,7.5h15a8.27,8.27,0,0,0,8.24-7.5c0-.26,0-.52,0-.78V281.23C655.69,269.58,650.69,258.72,642.49,253.25Z"/><ellipse class="cls-17" cx="604.43" cy="293.3" rx="30.17" ry="34.97"/><rect class="cls-3" x="450.63" y="192.13" width="99.1" height="113.62"/><path class="cls-16" d="M541.68,125.65l-25.26-32.5H451.15l-25.26,32.5a57.14,57.14,0,0,0-8.05,29.24V316.82a26.45,26.45,0,0,0,26.33,26.33H523.4a26.45,26.45,0,0,0,26.33-26.33V154.89A57.14,57.14,0,0,0,541.68,125.65Z"/><path class="cls-10" d="M441.52,74v.83c0,5.79,9.66,10.49,9.66,10.49v7.87h65.24V85.28s10.12-4.7,10.12-10.49V74Z"/><path class="cls-3" d="M526.48,66.22h-3.82V14.6A13.48,13.48,0,0,0,509.19,1.12H458A13.48,13.48,0,0,0,444.54,14.6V66.22H441A3.87,3.87,0,0,0,441,74h85.46a3.87,3.87,0,1,0,0-7.74Z"/><path class="cls-9" d="M477.76,74H441a3.86,3.86,0,0,1-3.86-3.87h0A3.87,3.87,0,0,1,441,66.22h36.74a3.87,3.87,0,0,1,3.87,3.87h0A3.87,3.87,0,0,1,477.76,74Z"/><path class="cls-18" d="M526.48,74H505.25a3.87,3.87,0,0,1-3.87-3.87h0a3.87,3.87,0,0,1,3.87-3.87h21.23a3.87,3.87,0,0,1,3.87,3.87h0A3.87,3.87,0,0,1,526.48,74Z"/><path class="cls-18" d="M509.19,1.12H498.51a13.44,13.44,0,0,1,4.68,10.2v54.9h19.47V14.6A13.48,13.48,0,0,0,509.19,1.12Z"/><path class="cls-9" d="M464.16,1.12H458A13.48,13.48,0,0,0,444.54,14.6V66.22h33.09V14.6A13.48,13.48,0,0,0,464.16,1.12Z"/><g class="cls-19"><path class="cls-14" d="M457.64,60.49h-7v-48a3.5,3.5,0,0,1,3.5-3.5h0a3.51,3.51,0,0,1,3.51,3.5Z"/><path class="cls-14" d="M467.64,60.49h-7v-48A3.51,3.51,0,0,1,464.13,9h0a3.51,3.51,0,0,1,3.51,3.5Z"/><path class="cls-14" d="M477.63,60.49h-7v-48A3.51,3.51,0,0,1,474.13,9h0a3.5,3.5,0,0,1,3.5,3.5Z"/><path class="cls-14" d="M487.63,60.49h-7v-48a3.5,3.5,0,0,1,3.5-3.5h0a3.51,3.51,0,0,1,3.51,3.5Z"/><path class="cls-14" d="M497.63,60.49h-7v-48A3.51,3.51,0,0,1,494.12,9h0a3.51,3.51,0,0,1,3.51,3.5Z"/><path class="cls-14" d="M507.62,60.49h-7v-48A3.51,3.51,0,0,1,504.12,9h0a3.5,3.5,0,0,1,3.5,3.5Z"/><path class="cls-14" d="M517.62,60.49h-7v-48a3.5,3.5,0,0,1,3.5-3.5h0a3.51,3.51,0,0,1,3.51,3.5Z"/></g><rect class="cls-20" x="450.63" y="192.13" width="43.55" height="113.62"/><ellipse class="cls-21" cx="462.07" cy="221.85" rx="39.31" ry="98.55"/><path class="cls-10" d="M541.68,125.65l-25.26-32.5H483.26l25.26,32.5a57.14,57.14,0,0,1,8.05,29.24V316.82a26.45,26.45,0,0,1-26.33,26.33H523.4a26.45,26.45,0,0,0,26.33-26.33V154.89A57.14,57.14,0,0,0,541.68,125.65Z"/><rect class="cls-22" x="470.62" y="220.61" width="74.68" height="17.57" rx="5"/><path class="cls-22" d="M519.65,277.88H468.71a3,3,0,0,1-2.95-2.95h0a3,3,0,0,1,2.95-2.95h50.94a3,3,0,0,1,3,2.95h0A3,3,0,0,1,519.65,277.88Z"/><path class="cls-22" d="M519.65,287.66H468.71a3,3,0,0,1-2.95-3h0a3,3,0,0,1,2.95-2.95h50.94a3,3,0,0,1,3,2.95h0A3,3,0,0,1,519.65,287.66Z"/><path class="cls-22" d="M519.65,296.15H468.71a3,3,0,0,1-2.95-2.95h0a3,3,0,0,1,2.95-2.95h50.94a3,3,0,0,1,3,2.95h0A3,3,0,0,1,519.65,296.15Z"/><path class="cls-9" d="M238,177.73,237.7,318a24.88,24.88,0,0,0,24.88,24.88h88.1A24.88,24.88,0,0,0,375.56,318V177.73Z"/><path class="cls-8" d="M269.72,318V177.73H238L237.7,318a24.88,24.88,0,0,0,24.88,24.88h32A24.88,24.88,0,0,1,269.72,318Z"/><polygon class="cls-18" points="387.35 159.03 375.56 177.73 237.95 177.73 225.91 159.03 387.35 159.03"/><path class="cls-4" d="M375.56,177.73,387.35,159H326.62l-11.79,18.7V318A24.88,24.88,0,0,1,290,342.84h60.73c13.74,0,24.88-11.14,24.88-25.93Z"/><rect class="cls-9" x="225.91" y="147.95" width="161.44" height="11.07"/><rect class="cls-10" x="326.62" y="147.95" width="60.73" height="11.07"/><rect class="cls-3" x="244.05" y="209.3" width="124.25" height="58.97"/><path class="cls-22" d="M353.19,238.79H274c-8.25,0-6.68-11-6.64-10.87a6.64,6.64,0,0,1,6.64-6.64h79.22c8.26,0,6.69,11,6.65,10.87A6.64,6.64,0,0,1,353.19,238.79Z"/><path class="cls-4" d="M380.7,141.31c-151.51,0-156-2.88-154.79,6.64H387.35A6.64,6.64,0,0,0,380.7,141.31Z"/><path class="cls-18" d="M217.52,137a12.75,12.75,0,0,0-2.72,7.75H398.46a12.75,12.75,0,0,0-2.72-7.75Z"/><polygon class="cls-3" points="217.52 137.02 395.73 137.02 397 139.02 397.03 139.06 216.23 139.06 217.52 137.02"/><path class="cls-15" d="M784.16,149.56H708.22a32.67,32.67,0,0,0-32.66,32.67v161H816.82v-161A32.67,32.67,0,0,0,784.16,149.56Z"/><path class="cls-23" d="M696.39,318.37l7.44,12.18a9.39,9.39,0,0,0,16-9.78l-7.44-12.18Z"/><path class="cls-24" d="M704.5,295.6a9.39,9.39,0,0,0-16,9.78l7.92,13,16-9.78Z"/><path class="cls-12" d="M707.15,327.29l-7.44-12.18-7.92-13a9.37,9.37,0,0,1,0-9.74l-.18.1a9.37,9.37,0,0,0-3.12,12.9l7.92,13,7.44,12.18a9.39,9.39,0,0,0,16,0A9.39,9.39,0,0,1,707.15,327.29Z"/><g class="cls-25"><path class="cls-3" d="M694.62,296.14a1.47,1.47,0,0,1,2.49-1.58l18.82,29.65a1.47,1.47,0,0,1-.45,2C713.48,327.52,713.68,325.68,694.62,296.14Z"/></g><path class="cls-23" d="M723.83,323.9l7.43,12.18a9.39,9.39,0,0,0,16-9.78l-7.43-12.18Z"/><path class="cls-24" d="M731.93,301.13a9.39,9.39,0,0,0-16,9.78l7.93,13,16-9.78Z"/><path class="cls-12" d="M734.58,332.82l-7.43-12.18-7.93-13a9.39,9.39,0,0,1,0-9.74l-.18.1a9.39,9.39,0,0,0-3.12,12.9l7.93,13,7.43,12.18a9.39,9.39,0,0,0,16,0A9.39,9.39,0,0,1,734.58,332.82Z"/><g class="cls-25"><path class="cls-3" d="M722.05,301.67a1.48,1.48,0,0,1,2.5-1.58l18.82,29.65a1.48,1.48,0,0,1-.46,2C740.92,333.05,741.12,331.21,722.05,301.67Z"/></g><path class="cls-23" d="M750.31,324.54l7.44,12.18a9.39,9.39,0,0,0,16-9.79l-7.44-12.18Z"/><path class="cls-24" d="M758.41,301.77a9.39,9.39,0,0,0-16,9.78l7.93,13,16-9.79Z"/><path class="cls-12" d="M761.07,333.46l-7.44-12.18-7.92-13a9.37,9.37,0,0,1,0-9.74l-.19.1a9.39,9.39,0,0,0-3.12,12.9l7.93,13,7.44,12.18a9.39,9.39,0,0,0,16,0A9.38,9.38,0,0,1,761.07,333.46Z"/><g class="cls-25"><path class="cls-3" d="M748.53,302.31a1.48,1.48,0,0,1,2.5-1.58l18.82,29.65a1.48,1.48,0,0,1-.45,2C767.4,333.69,767.6,331.85,748.53,302.31Z"/></g><path class="cls-23" d="M697.5,286l7.43,12.18a9.39,9.39,0,1,0,16-9.79l-7.43-12.18Z"/><path class="cls-24" d="M705.6,263.23a9.39,9.39,0,0,0-16,9.79l7.93,13,16-9.79Z"/><path class="cls-12" d="M708.25,294.93l-7.43-12.18-7.93-13a9.39,9.39,0,0,1,0-9.75l-.18.1A9.39,9.39,0,0,0,689.57,273l7.93,13,7.43,12.18a9.39,9.39,0,0,0,16.05,0A9.4,9.4,0,0,1,708.25,294.93Z"/><g class="cls-25"><path class="cls-3" d="M695.72,263.78a1.47,1.47,0,0,1,2.49-1.58L717,291.85a1.49,1.49,0,0,1-.46,2C714.58,295.16,714.79,293.32,695.72,263.78Z"/></g><path class="cls-23" d="M723.15,285.39l7.44,12.18a9.39,9.39,0,0,0,16-9.79l-7.44-12.18Z"/><path class="cls-24" d="M731.25,262.61a9.39,9.39,0,0,0-16,9.79l7.93,13,16-9.79Z"/><path class="cls-12" d="M733.91,294.3l-7.44-12.18-7.93-13a9.41,9.41,0,0,1,0-9.75l-.19.1a9.4,9.4,0,0,0-3.12,12.91l7.93,13,7.44,12.18a9.38,9.38,0,0,0,16-.05A9.38,9.38,0,0,1,733.91,294.3Z"/><g class="cls-25"><path class="cls-3" d="M721.37,263.16a1.48,1.48,0,0,1,2.5-1.58l18.82,29.65a1.47,1.47,0,0,1-.45,2C740.24,294.53,740.44,292.69,721.37,263.16Z"/></g><path class="cls-23" d="M749.63,286l7.44,12.18a9.39,9.39,0,0,0,16-9.79l-7.44-12.18Z"/><path class="cls-24" d="M757.73,263.23a9.39,9.39,0,0,0-16,9.79l7.93,13,16-9.79Z"/><path class="cls-12" d="M760.39,294.93,753,282.75l-7.92-13a9.39,9.39,0,0,1,0-9.75l-.18.1A9.39,9.39,0,0,0,741.7,273l7.93,13,7.44,12.18a9.39,9.39,0,0,0,16,0A9.4,9.4,0,0,1,760.39,294.93Z"/><g class="cls-25"><path class="cls-3" d="M747.86,263.78a1.47,1.47,0,0,1,2.49-1.58l18.82,29.65a1.47,1.47,0,0,1-.45,2C766.72,295.16,766.92,293.32,747.86,263.78Z"/></g><path class="cls-23" d="M778.42,324.54l7.43,12.18a9.39,9.39,0,0,0,16-9.79l-7.43-12.18Z"/><path class="cls-24" d="M786.52,301.77a9.39,9.39,0,0,0-16,9.78l7.93,13,16-9.79Z"/><path class="cls-12" d="M789.18,333.46l-7.44-12.18-7.93-13a9.41,9.41,0,0,1,0-9.74l-.18.1a9.39,9.39,0,0,0-3.12,12.9l7.93,13,7.43,12.18a9.38,9.38,0,0,0,12.91,3.12,9.21,9.21,0,0,0,3.14-3.16A9.37,9.37,0,0,1,789.18,333.46Z"/><g class="cls-25"><path class="cls-3" d="M776.64,302.31a1.48,1.48,0,0,1,2.5-1.58L798,330.38a1.48,1.48,0,0,1-.45,2C795.51,333.69,795.71,331.85,776.64,302.31Z"/></g><path class="cls-10" d="M784.16,149.56H752.59a32.67,32.67,0,0,1,32.66,32.67v161h31.57v-161A32.67,32.67,0,0,0,784.16,149.56Z"/><rect class="cls-26" x="766.6" y="118.93" width="39.38" height="17.35"/><path class="cls-27" d="M740.46,149.56h-.13a32.67,32.67,0,0,0-32.66,32.67v161h65.45v-161A32.67,32.67,0,0,0,740.46,149.56Z"/><rect class="cls-28" x="688.83" y="175.15" width="25.78" height="163.18"/><path class="cls-29" d="M694.45,137.14H796a0,0,0,0,1,0,0v9.16a4.13,4.13,0,0,1-4.12,4.13H698.58a4.13,4.13,0,0,1-4.12-4.12v-9.16A0,0,0,0,1,694.45,137.14Z"/><path class="cls-30" d="M766.78,137.14v7.2a6.09,6.09,0,0,1-6.09,6.09h29.18a6.09,6.09,0,0,0,6.09-6.09v-7.2Z"/><rect class="cls-31" x="686.4" y="118.93" width="119.59" height="18.21"/><rect class="cls-3" x="686.4" y="118.93" width="119.59" height="17.35"/><path class="cls-3" d="M659.71,121.7H686.4a0,0,0,0,1,0,0v9.78a0,0,0,0,1,0,0H664.65a4.94,4.94,0,0,1-4.94-4.94V121.7A0,0,0,0,1,659.71,121.7Z"/></g></g></g></svg>